<?xml version="1.0" encoding="UTF-8" standalone="no"?>
<!-- Created with Inkscape (http://www.inkscape.org/) -->

<svg
   width="526.13"
   height="50.369999"
   viewBox="0 0 139.20522 13.327062"
   version="1.1"
   id="svg5"
   inkscape:version="1.2.2 (732a01da63, 2022-12-09)"
   xml:space="preserve"
   sodipodi:docname="gbatempretro.svg"
   xmlns:inkscape="http://www.inkscape.org/namespaces/inkscape"
   xmlns:sodipodi="http://sodipodi.sourceforge.net/DTD/sodipodi-0.dtd"
   xmlns="http://www.w3.org/2000/svg"
   xmlns:svg="http://www.w3.org/2000/svg"><sodipodi:namedview
     id="namedview7"
     pagecolor="#000000"
     bordercolor="#111111"
     borderopacity="1"
     inkscape:showpageshadow="0"
     inkscape:pageopacity="0"
     inkscape:pagecheckerboard="1"
     inkscape:deskcolor="#d1d1d1"
     inkscape:document-units="mm"
     showgrid="false"
     inkscape:zoom="2.5895833"
     inkscape:cx="141.52856"
     inkscape:cy="34.754627"
     inkscape:window-width="1920"
     inkscape:window-height="1009"
     inkscape:window-x="-8"
     inkscape:window-y="-8"
     inkscape:window-maximized="1"
     inkscape:current-layer="g596"><inkscape:grid
       type="xygrid"
       id="grid529"
       originx="0"
       originy="0" /></sodipodi:namedview><defs
     id="defs2" /><g
     inkscape:label="Layer 1"
     inkscape:groupmode="layer"
     id="layer1"><g
       id="g596"
       style="fill:#ffffff;fill-opacity:1"><path
         d="m 69.081943,9.3613852 c -0.227486,-0.00691 -0.527592,-0.1509395 -0.533107,-0.6092849 -0.01036,-0.8912675 -3.5e-5,0.1559021 -3.5e-5,-2.2413294 0,-4.2940099 -0.03074,-5.2693539 0,-5.67947794 0.03189,-0.42572573 0.260843,-0.5849785 0.609308,-0.60929648 0.348466,-0.0242949 4.503097,-0.004606 4.843744,0 0.303284,0.004606 0.606579,0.0563044 0.609296,0.60929648 0.01186,2.42271244 -0.0092,3.85903874 0,5.77321494 0.0023,0.5868322 0.05987,0.5911155 0.304643,0.6092964 0.244711,0.018192 0.307049,-0.1081182 0.304642,-0.6092964 -0.0058,-1.1367496 -0.04387,-5.0708608 0,-5.78827554 0.03811,-0.62286015 0.321027,-0.60193887 0.609297,-0.60929644 0.511299,-0.013011 4.532077,0.0151987 4.844008,0.0150836 0.547304,-1.4968e-4 0.611151,0.21657042 0.609285,0.59423584 -0.01243,2.51639194 0.0081,7.39179934 0,7.93586794 -0.0081,0.5504013 -0.222039,0.6046562 -0.609285,0.6092619 -0.108463,0.00115 -0.84156,0.027634 -0.990105,0.017617 -0.48705,-0.032815 -0.589054,-0.2976764 -0.609296,-0.6269247 -0.01785,-0.2911018 0.04145,-3.4533357 0,-5.9406082 -0.0058,-0.3539577 -0.24189,-0.5923245 -0.609285,-0.6092964 -0.207083,-0.00921 -0.475628,-0.00345 -0.609297,-0.00115 -0.277757,0.00461 -0.612635,0.1527358 -0.609285,0.6109545 0.0046,0.6795791 -0.0058,2.5333293 0,5.9406082 7.72e-4,0.4450696 -0.146023,0.5894806 -0.609285,0.609285 -0.273692,0.011745 -3.070247,-0.00921 -3.442501,0 -0.418103,0.010363 -0.601778,-0.1229831 -0.609296,-0.609285 -0.0092,-0.6226183 0,-4.9906414 0,-5.9406082 0,-0.3301349 -0.126253,-0.5572983 -0.609297,-0.6092964 -0.09534,-0.010363 -0.442076,-0.00576 -0.609285,0 -0.304412,0.00921 -0.60332,0.2735426 -0.609296,0.6092964 -0.03846,2.1600738 -0.03581,4.6256301 0,5.9406198 0.01198,0.4403487 -0.260797,0.6119447 -0.609297,0.6092849 -0.197756,-0.00115 -0.796517,0.00806 -1.06626,0 z"
         style="fill:#ffffff;fill-opacity:1;stroke:none;stroke-width:0.2;stroke-dasharray:none;stroke-opacity:1"
         id="path501-3"
         sodipodi:nodetypes="scssscscscssssccssssssssccssssssss" /><path
         d="m 14.237795,0.91008884 c -0.0035,-0.222293 0.150939,-0.60378114 0.609285,-0.60929644 0.891267,-0.0103628 3.485276,-3.454e-5 5.882508,-3.454e-5 4.29401,0 5.283931,-0.0307429 5.694055,0 0.425726,0.0318943 0.584979,0.26083097 0.609297,0.60929648 0.02429,0.34846546 0.0046,2.40116936 0,2.74181666 -0.0046,0.3032838 -0.05584,0.6065791 -0.608813,0.6092965 -2.422713,0.01186 -4.483396,-0.00921 -6.397573,0 -0.586832,0.0023 -0.591115,0.059874 -0.609296,0.3046424 -0.01819,0.2447111 0.108118,0.307049 0.609296,0.3046425 1.13675,-0.00576 5.680158,-0.043869 6.397573,0 0.62286,0.038112 0.601939,0.3210271 0.609296,0.6092964 0.01301,0.5112992 -9.2e-5,2.8868606 0,3.1987915 1.5e-4,0.5473041 -0.231631,0.6111502 -0.609296,0.6092849 -2.516392,-0.012435 -7.986024,0.00806 -8.530093,0 -0.550401,-0.00806 -0.604794,-0.2220511 -0.609296,-0.6092849 -0.0012,-0.1084637 -0.04502,-0.7653943 -0.035,-0.9139389 0.03281,-0.4870503 0.315074,-0.5890545 0.644276,-0.6092964 0.291102,-0.017847 6.669227,0.0023 6.702215,0 0.2082,-0.015429 0.288546,-0.037306 0.284044,-0.3046425 -0.0046,-0.2673595 -0.08578,-0.3079931 -0.284044,-0.304654 -0.679499,0.011514 -3.294912,-0.00576 -6.702192,0 -0.445069,7.715e-4 -0.589492,-0.146023 -0.609296,-0.6092845 -0.01175,-0.2736923 0.0092,-2.3695629 -4.84e-4,-2.7418167 -0.01036,-0.4181033 0.122995,-0.6017777 0.609297,-0.6092964 0.622618,-0.00921 5.752248,0 6.702214,0 0.330135,0 0.304643,-0.072079 0.304643,-0.2639629 0,-0.1918494 0.01347,-0.3465886 -0.304643,-0.3453336 -2.029595,0.00806 -6.148486,0.018538 -7.463832,0 -0.51678,-0.00691 -0.602319,0.3221556 -0.609297,0.6092965 -0.03017,1.2392723 -0.001,5.8030481 0,6.0929294 0.0012,0.3393232 -0.168314,0.5882025 -0.609296,0.6092389 -0.366186,0.017502 -0.368374,0.00806 -0.934538,0 -0.299334,-0.00461 -0.731209,0.065401 -0.741007,-0.6092043 -0.01911,-1.3152315 0.01934,-6.309592 0,-7.76848606 z"
         style="fill:#ffffff;fill-opacity:1;stroke:none;stroke-width:0.2;stroke-dasharray:none;stroke-opacity:1"
         id="path501" /><path
         d="m 30.733854,4.2582671 c 3.367429,-0.031664 3.766476,-0.0327 7.187999,0 0.582537,0.00576 0.610263,-0.2492938 0.609285,-0.6092965 -0.0035,-1.0781313 2.76e-4,-0.7690558 0,-0.9139389 -8.87e-4,-0.4672228 -0.02982,-0.6160092 -0.609285,-0.6092964 -1.492458,0.017271 -5.003066,0.0023 -7.311512,0 -0.372668,-3.455e-4 -0.632808,0.1684641 -0.609296,0.9373472 0.019,0.622676 -0.01324,-0.198401 0,0.1289129 0.02372,0.583355 -0.04525,1.0735832 0.732809,1.0662717 z M 28.020846,0.75477506 c 9.67e-4,-0.39656028 0.166449,-0.6128889 0.609285,-0.60928496 3.973628,0.0322397 7.504984,-0.006909 11.272024,4.605e-5 0.356065,5.9874e-4 0.606844,0.2933931 0.609285,0.60928491 0.02257,2.92672324 0.0081,6.00146084 0,8.07312854 -0.0023,0.5741897 -0.33367,0.6102522 -0.657633,0.6092965 -0.40257,-0.00115 -0.162891,0.00691 -0.713269,0 L 39.140434,9.4372 c -0.372887,-0.00461 -0.59054,-0.072424 -0.609296,-0.6092964 -0.02027,-0.5802231 0.0046,-1.6651478 0,-2.1325203 -0.0046,-0.5745692 -0.04502,-0.616216 -0.609285,-0.6092845 -1.613899,0.019804 -4.090774,0.021301 -7.187999,0 -0.469077,-0.00345 -0.624,-0.052389 -0.616642,0.5377238 0.0035,0.2883614 0.0069,1.9128295 0.0069,2.0932224 5.76e-4,0.2332429 -0.160554,0.5933147 -0.608859,0.6092849 -0.329421,0.011744 -0.557045,0.00806 -0.884992,0 -0.422007,-0.010363 -0.608491,-0.3174463 -0.609297,-0.6092849 -0.0069,-2.6544006 -0.0023,-7.0131206 -1.26e-4,-7.96226994 z"
         style="fill:#ffffff;fill-opacity:1;stroke:none;stroke-width:0.2;stroke-dasharray:none;stroke-opacity:1"
         id="path429-1"
         sodipodi:nodetypes="sccsssssssccscsssscscssssss" /><path
         d="m 127.95615,0.24599993 c 0.37289,0.004606 0.59054,0.0724243 0.6093,0.60929645 0.0203,0.58022312 -0.005,0.44656632 0,0.91393892 0.005,0.5745696 0.045,0.6162164 0.60928,0.6092849 1.6139,-0.019804 6.1945,-0.021301 9.29172,0 0.46908,0.00345 0.60929,0.1920797 0.60929,0.6092964 0,0.2883845 -0.0128,0.4293412 0,0.6092965 0.0285,0.4031348 -0.30164,0.6036315 -0.60929,0.6092849 -3.367,0.061946 -5.8702,0.0327 -9.29172,0 -0.58254,-0.00576 -0.61026,0.2492938 -0.60928,0.6092965 0.003,1.0781312 -2.8e-4,1.9876367 0,2.1325198 8.8e-4,0.4672228 0.0298,0.6160092 0.60928,0.6092964 1.49246,-0.017271 5.00307,-0.0023 7.31151,0 0.37267,3.455e-4 0.63281,-0.1684641 0.6093,-0.9373472 -0.019,-0.6226755 -0.0116,-0.9996847 0,-1.3474938 0.0174,-0.5188295 0.32412,-0.5987264 0.65035,-0.6092965 0.59451,-0.019229 0.24111,0.01612 0.72056,0 0.31009,-0.010363 0.60186,0.1082334 0.60929,0.6092965 0.006,0.3999339 0.002,2.7066059 0,3.6557552 -9.7e-4,0.3965602 -0.16645,0.6128888 -0.60929,0.6092849 -3.97363,-0.03224 -7.50498,0.00691 -11.27202,-4.61e-5 -0.35607,-5.987e-4 -0.60685,-0.2933931 -0.60929,-0.6092849 -0.0226,-2.9267227 -0.008,-6.0014607 0,-8.07312848 0.002,-0.57418968 0.33367,-0.61025212 0.65764,-0.60929644 0.40257,0.001151 0.16289,-0.006909 0.71327,0 z"
         style="fill:#ffffff;fill-opacity:1;stroke:none;stroke-width:0.2;stroke-dasharray:none;stroke-opacity:1"
         id="path429-5" /><path
         d="m 42.879093,0.14756643 c 0.372887,0.004606 0.59054,0.0724243 0.609297,0.60929645 0.02026,0.58022312 -0.0046,0.44656642 0,0.91393892 0.0046,0.5745696 0.04502,0.6162165 0.609285,0.6092849 1.613898,-0.019804 6.194496,-0.021301 9.291722,0 0.469076,0.00345 0.609285,0.1920797 0.609285,0.6092965 0,0.2883844 -0.01278,0.4293411 0,0.6092964 0.02855,0.4031349 -0.301638,0.6036315 -0.609285,0.6092849 -3.367003,0.061946 -5.8702,0.0327 -9.291722,0 -0.582538,-0.00576 -0.610264,0.2492938 -0.609285,0.6092965 0.0035,1.0781313 -2.76e-4,1.9876367 0,2.1325198 8.86e-4,0.4672228 0.02982,0.6160092 0.609285,0.6092964 1.492458,-0.017271 5.003065,-0.0023 7.311511,0 0.372668,3.455e-4 0.632808,-0.1684641 0.609297,-0.9373468 -0.019,-0.6226759 -0.01163,-0.999685 0,-1.3474942 0.01739,-0.5188295 0.324124,-0.5987264 0.650356,-0.6092965 0.5945,-0.019229 0.241107,0.01612 0.720558,0 0.310088,-0.010363 0.601858,0.1082334 0.609285,0.6092965 0.0058,0.3999339 0.0023,2.7066059 0,3.6557552 -9.68e-4,0.3965602 -0.16645,0.6128888 -0.609285,0.6092849 -3.973628,-0.03224 -7.504985,0.00691 -11.272025,-4.61e-5 -0.356065,-5.987e-4 -0.606844,-0.2933931 -0.609285,-0.6092849 -0.02257,-2.9267226 -0.0081,-6.0014607 0,-8.07312848 0.0023,-0.57418968 0.33367,-0.61025212 0.657633,-0.60929644 0.402571,0.001151 0.162891,-0.006909 0.71327,0 z"
         style="fill:#ffffff;fill-opacity:1;stroke:none;stroke-width:0.2;stroke-dasharray:none;stroke-opacity:1"
         id="path429" /><path
         d="m 124.7401,9.3807093 c 0.5256,-0.015314 0.76162,-0.300152 0.76162,-0.6098146 0,-0.1649293 8e-5,-0.4964689 0,-0.7616177 -1.1e-4,-0.3873144 -0.25683,-0.612981 -0.76162,-0.6087668 -1.02596,0.00806 -7.82063,0.013241 -9.45063,0 -0.2648,-0.0023 -0.62607,-0.1697767 -0.624,-0.6069591 0.006,-1.2098071 0.0317,-2.5321428 0.0426,-3.8413984 0.003,-0.4180227 0.34434,-0.6080875 0.58798,-0.6092965 1.93193,-0.00921 7.39956,-0.00345 7.61617,0 0.38326,0.00576 0.34314,0.2642162 0.34252,0.4874418 -7.3e-4,0.2632835 0.0667,0.5712881 -0.34252,0.5710578 -0.4653,-2.648e-4 -6.08814,-5.412e-4 -6.24526,1.497e-4 -0.33059,0.00115 -0.72626,0.225563 -0.76161,0.6092964 -0.017,0.1853324 -0.009,0.3141762 0,0.6473739 0.0115,0.4022713 0.42068,0.6223881 0.76161,0.6092849 0.59387,-0.022798 6.88061,0.00576 8.07313,0 0.5413,-0.0023 0.76064,-0.2283609 0.76162,-0.6092849 0.002,-0.7684571 -0.003,-3.3583441 0,-3.6557556 0.006,-0.40287008 -0.34465,-0.61142662 -0.76162,-0.60929649 -0.56461,0.003454 -10.54798,-0.0103628 -11.35108,0 -0.42514,0.005757 -0.74369,0.33190806 -0.74333,0.60929649 8.8e-4,0.6917841 0.0495,3.3342333 -5e-5,7.7427403 -0.006,0.5051966 0.0663,0.6349385 0.6093,0.6350306 0.42509,6.91e-5 10.53506,0.027173 11.48516,5.182e-4 z"
         style="fill:#ffffff;fill-opacity:1;stroke:none;stroke-width:0.2;stroke-dasharray:none;stroke-opacity:1"
         id="path1728-1" /><path
         style="fill:#ffffff;fill-opacity:1;stroke:none;stroke-width:0.2;stroke-dasharray:none;stroke-opacity:1"
         d="m 12.525977,0.30249083 c 0.5256,0.0153139 0.761617,0.30015198 0.761617,0.60981458 0,0.16492929 8.1e-5,0.49646889 0,0.76161769 -1.15e-4,0.3873143 -0.256835,0.6129809 -0.761617,0.6087668 -1.025961,-0.00806 -7.8206342,-0.013241 -9.4506291,0 -0.2648034,0.0023 -0.6260726,0.1697767 -0.6240001,0.606959 0.00576,1.2098076 0.031664,2.5321433 0.042603,3.8413985 0.00345,0.4180227 0.3443434,0.6080875 0.5879837,0.6092964 1.9319316,0.00921 7.3995595,0.00345 7.6161655,0 0.38326,-0.00576 0.343146,-0.2642161 0.342523,-0.4874417 C 11.039899,6.5896186 11.107293,6.2816144 10.6981,6.2818447 10.2328,6.2821096 4.6099598,6.2823859 4.4528486,6.281695 4.1222532,6.280545 3.7265795,6.056132 3.691231,5.6723986 3.67419,5.4870662 3.682021,5.3582224 3.691231,5.0250247 3.702745,4.6227534 4.1119134,4.4026366 4.4528486,4.4157398 c 0.5938675,0.022798 6.8806034,-0.00576 8.0731294,0 0.541293,0.0023 0.760638,0.2283609 0.761616,0.6092849 0.0023,0.7684571 -0.0035,3.3583437 0,3.6557552 0.0058,0.40287 -0.344654,0.6114266 -0.761616,0.6092964 -0.56461,-0.00345 -10.5479781,0.010363 -11.3510811,0 C 0.74975796,9.2843193 0.43120635,8.9581683 0.43156329,8.6807799 0.43244988,7.9889958 0.48107431,5.346547 0.43151724,0.93803961 0.42576014,0.43284298 0.49783898,0.30310108 1.0408137,0.30300896 1.465906,0.30293988 11.575872,0.27583547 12.525977,0.30249083 Z"
         id="path986"
         sodipodi:nodetypes="ssssssssssssssssssssssss" /><path
         d="m 67.020608,9.2822757 c 0.5256,-0.015314 0.761617,-0.3001519 0.761617,-0.6098146 0,-0.1649292 8.1e-5,-0.4964689 0,-0.7616176 -1.15e-4,-0.3873144 -0.256835,-0.612981 -0.761617,-0.6087668 -1.025961,0.00806 -7.820634,0.013241 -9.450629,0 -0.264804,-0.0023 -0.626073,-0.1697768 -0.624,-0.6069591 0.0058,-1.2098071 0.03166,-2.5321429 0.0426,-3.8413985 0.0035,-0.4180227 0.344343,-0.6080874 0.587984,-0.6092964 1.931931,-0.00921 7.39956,-0.00345 7.616165,0 0.383261,0.00576 0.343146,0.2642161 0.342524,0.4874417 -7.25e-4,0.2632835 0.06667,0.5712881 -0.342524,0.5710578 -0.4653,-2.648e-4 -6.08814,-5.411e-4 -6.245251,1.497e-4 -0.330596,0.00115 -0.726269,0.225563 -0.761618,0.6092965 -0.01704,0.1853324 -0.0092,0.3141762 0,0.6473739 0.01151,0.4022712 0.420683,0.622388 0.761618,0.6092849 0.593867,-0.022798 6.880604,0.00576 8.073129,0 0.541293,-0.0023 0.760639,-0.228361 0.761617,-0.6092849 0.0023,-0.7684572 -0.0035,-3.3583441 0,-3.65575567 0.0058,-0.40287003 -0.344654,-0.61142657 -0.761617,-0.60929645 -0.56461,0.003454 -10.547978,-0.0103628 -11.351081,0 -0.425139,0.005757 -0.74369,0.33190807 -0.743333,0.60929645 8.86e-4,0.69178407 0.04951,3.33423337 -4.6e-5,7.74274027 -0.0058,0.5051967 0.06632,0.6349386 0.609296,0.6350307 0.425092,6.91e-5 10.535059,0.027173 11.485164,5.181e-4 z"
         style="fill:#ffffff;fill-opacity:1;stroke:none;stroke-width:0.2;stroke-dasharray:none;stroke-opacity:1"
         id="path1728" /><path
         d="m 83.461394,9.2822758 c 0.5256,-0.015314 0.609285,-0.300152 0.609285,-0.6098146 0,-0.1649293 -0.0023,-4.5094864 0.0081,-5.818742 0.0035,-0.4180227 0.344343,-0.6080875 0.587983,-0.6092965 1.931932,-0.00921 7.399561,-0.00345 7.616166,0 0.383261,0.00576 0.342616,0.2642162 0.342524,0.4874418 -3.57e-4,0.8374962 -0.0046,0.1748775 4.6e-5,1.0018958 0.0012,0.3146137 -0.15885,0.4967107 -0.363422,0.4965955 -0.4653,-2.648e-4 -6.17133,-5.411e-4 -6.328442,1.497e-4 -0.330595,0.00115 -0.726269,0.225563 -0.761617,0.6092965 -0.01704,0.1853324 -0.0092,0.3141762 0,0.6473738 0.01151,0.4022713 0.420682,0.6223881 0.761617,0.609285 0.593868,-0.022798 6.963795,0.00576 8.156319,0 0.541294,-0.0023 0.760639,-0.228361 0.761618,-0.609285 0.0023,-0.7684571 0.01739,-4.2857776 0.02084,-4.5831891 0.0058,-0.40287009 -0.344655,-0.61142663 -0.761618,-0.6092965 -0.56461,0.003454 -10.547978,-0.0103628 -11.351081,0 -0.425138,0.005757 -0.74369,0.33190807 -0.743333,0.6092965 8.87e-4,0.6917841 0.04951,3.3342333 -4.6e-5,7.7427403 -0.0058,0.5051966 0.06632,0.6349385 0.609296,0.6350306 0.425093,6.91e-5 -0.114566,0.027173 0.835516,5.182e-4 z"
         style="fill:#ffffff;fill-opacity:1;stroke:none;stroke-width:0.2;stroke-dasharray:none;stroke-opacity:1"
         id="path1728-7"
         sodipodi:nodetypes="cssccssscscscccccscscc" /><path
         style="fill:#ffffff;fill-opacity:1;stroke:none;stroke-width:0.2;stroke-miterlimit:4.5;stroke-dasharray:none;stroke-opacity:1;paint-order:fill markers stroke"
         id="path1846"
         sodipodi:type="arc"
         sodipodi:cx="96.754951"
         sodipodi:cy="8.5875788"
         sodipodi:rx="1.151419"
         sodipodi:ry="1.151419"
         sodipodi:start="0"
         sodipodi:end="6.2607322"
         sodipodi:open="true"
         sodipodi:arc-type="arc"
         d="M 97.906371,8.5875788 A 1.151419,1.151419 0 0 1 96.761415,9.7389797 1.151419,1.151419 0 0 1 95.603605,8.600505 1.151419,1.151419 0 0 1 96.735563,7.436323 1.151419,1.151419 0 0 1 97.90608,8.561728" /><path
         d="M 99.524039,9.4869216 C 99.296556,9.4800116 98.99645,9.335982 98.990934,8.8776366 98.980574,7.9863692 98.9909,9.0335388 98.9909,6.6363072 c 0,-4.2940098 -0.03074,-5.2693539 0,-5.6794778 0.03189,-0.42572574 0.260842,-0.58497852 0.609309,-0.60929649 0.34846,-0.0242949 5.721671,-0.0556135 6.062321,-0.0510079 0.30328,0.004606 0.60658,0.10731226 0.6093,0.66028129 0.0119,2.4227125 -0.009,3.8590387 0,5.7732149 0.001,0.2934162 -0.10605,0.6105631 0.60932,0.6093195 0.74295,-0.00115 1.71462,-0.00806 2.05666,-0.020726 0.33786,-0.012896 0.61165,-0.1081183 0.60924,-0.6092965 -0.006,-1.1367495 -0.0439,-5.0708607 0,-5.7882754 0.0381,-0.62286025 0.32103,-0.61716072 0.6093,-0.62451829 0.5113,-0.013011 0.49543,9.211e-5 0.80736,0 0.53691,-1.4969e-4 0.60603,0.16084173 0.60938,0.61906049 0.005,0.6795791 -0.006,4.5345303 0,7.9418092 7.7e-4,0.4450695 -0.14603,0.5894805 -0.60929,0.6092849 -0.27369,0.011745 -5.73618,0.011629 -6.10844,0.020841 -0.4181,0.010363 -0.86173,-0.1229831 -0.86925,-0.6092849 -0.009,-0.6226184 0,-4.9906414 0,-5.9406082 0,-0.3301349 -0.12625,-0.5572984 -0.60929,-0.6092965 -0.0953,-0.010363 -1.4007,-0.00576 -1.56791,0 -0.30442,0.00921 -0.60332,0.2735427 -0.6093,0.6092965 -0.0385,2.1600737 -0.0358,4.62563 0,5.9406197 0.012,0.4403487 -0.2608,0.6119447 -0.6093,0.6092849 -0.19775,-0.00115 -0.796511,0.00806 -1.066261,0 z"
         style="fill:#ffffff;fill-opacity:1;stroke:none;stroke-width:0.2;stroke-dasharray:none;stroke-opacity:1"
         id="path501-3-4"
         sodipodi:nodetypes="scssscscsscssssssccssssssss" /></g></g></svg>
