<?xml version="1.0" encoding="UTF-8"?>
<svg version="1.1" xmlns="http://www.w3.org/2000/svg" width="984" height="750">
<path d="M0 0 C12.02734866 9.43660123 21.18540146 21.35037477 23.8125 36.75 C25.45534246 53.86801281 21.66441306 68.12101403 14.8125 83.75 C4.56677921 107.77757531 2.86758162 135.87226519 11.875 160.67578125 C14.39750099 166.16747612 18.02001527 170.9528789 21.5012207 175.86474609 C31.27454647 189.83836534 34.51818663 205.92160905 32.8125 222.75 C31.22393929 230.79152764 27.79865514 237.31156667 22.8125 243.75 C22.32265625 244.41515625 21.8328125 245.0803125 21.328125 245.765625 C5.36405755 265.83925437 -23.27121928 273.53809491 -46.8125 279.9375 C-57.49137108 282.84365662 -67.96673468 286.24157012 -78.4375 289.8125 C-79.17671692 290.06212494 -79.91593384 290.31174988 -80.67755127 290.56893921 C-93.76534011 295.00107708 -106.14531134 300.30696783 -118.125 307.25 C-119.01050537 307.75990479 -119.89601074 308.26980957 -120.80834961 308.79516602 C-131.13390359 314.79881721 -141.17033632 321.2491806 -151.1875 327.75 C-152.14865723 328.37245605 -153.10981445 328.99491211 -154.10009766 329.63623047 C-159.80280632 333.33025801 -165.49894055 337.03422176 -171.1875 340.75 C-168.3757047 342.6245302 -166.16854645 343.35277367 -162.94580078 344.19433594 C-148.79910992 347.99035909 -138.62785877 356.75504903 -128.1875 366.75 C-127.45273437 367.42160156 -126.71796875 368.09320313 -125.9609375 368.78515625 C-102.74562039 390.72896306 -89.84208935 422.8151755 -88.78735352 454.46606445 C-88.24741232 492.90070187 -108.13033417 526.0436184 -133.1875 553.75 C-133.78691406 554.42160156 -134.38632812 555.09320312 -135.00390625 555.78515625 C-144.97803838 566.35923617 -157.66002479 574.54899897 -170.1875 581.75 C-171.11804199 582.28536377 -171.11804199 582.28536377 -172.06738281 582.83154297 C-192.75440883 594.47688363 -216.37825882 600.1778444 -239.70703125 603.578125 C-240.57094482 603.70469482 -241.4348584 603.83126465 -242.32495117 603.96166992 C-243.92308246 604.18706149 -245.52352652 604.39690486 -247.1262207 604.5871582 C-253.38404663 605.43128305 -257.98763194 607.85873227 -262 612.75 C-262.49757813 613.35457031 -262.99515625 613.95914063 -263.5078125 614.58203125 C-265.51057886 617.16699714 -267.43898844 619.80218177 -269.375 622.4375 C-274.22856051 628.96329564 -279.57289439 634.87424994 -285.1875 640.75 C-285.950625 641.554375 -286.71375 642.35875 -287.5 643.1875 C-293.02072607 648.8659611 -298.9472138 653.88086283 -305.1875 658.75 C-305.77418457 659.20777832 -306.36086914 659.66555664 -306.96533203 660.13720703 C-322.49994718 672.19013412 -338.82867551 682.53121158 -356.1875 691.75 C-356.83477051 692.09627441 -357.48204102 692.44254883 -358.14892578 692.79931641 C-394.86929607 712.2954281 -435.0358469 722.98582024 -476.1875 727.75 C-477.07663086 727.8545752 -477.96576172 727.95915039 -478.88183594 728.06689453 C-489.44335732 729.12683896 -500.08409303 728.9938572 -510.6875 729 C-511.73384613 729.00067474 -512.78019226 729.00134949 -513.85824585 729.00204468 C-530.48151071 728.98504601 -546.7434324 728.39810201 -563.1875 725.75 C-564.26080566 725.57839355 -565.33411133 725.40678711 -566.43994141 725.22998047 C-627.76036953 715.07194064 -684.90559171 689.30132935 -731.57128906 648.15283203 C-732.74689978 647.13243034 -733.9386612 646.13054565 -735.13964844 645.14013672 C-735.78192383 644.60791504 -736.42419922 644.07569336 -737.0859375 643.52734375 C-737.97418213 642.80212524 -737.97418213 642.80212524 -738.88037109 642.06225586 C-740.1875 640.75 -740.1875 640.75 -740.1875 638.75 C-740.77829346 638.48823975 -741.36908691 638.22647949 -741.9777832 637.95678711 C-744.31098892 636.68255931 -745.73554275 635.3790495 -747.54296875 633.44140625 C-748.16083252 632.78213135 -748.77869629 632.12285645 -749.4152832 631.44360352 C-750.06198975 630.74033936 -750.70869629 630.0370752 -751.375 629.3125 C-752.0455542 628.5918335 -752.7161084 627.87116699 -753.40698242 627.12866211 C-757.09549961 623.13295399 -760.62276608 619.07338294 -764 614.8125 C-774.43939494 601.85594254 -784.56618224 597.65719977 -800.4375 594 C-834.76003009 585.70315751 -866.67225457 571.02916281 -894.1875 548.75 C-894.78997559 548.26708496 -895.39245117 547.78416992 -896.01318359 547.28662109 C-919.10859941 528.63718179 -939.32059324 504.14316435 -943.1875 473.75 C-944.83421232 442.27233662 -935.76399064 412.03328491 -915.1875 387.75 C-913.46168617 385.90194103 -911.69860937 384.12952343 -909.8671875 382.38671875 C-906.7657379 379.36460856 -904.00927935 376.03070611 -901.1875 372.75 C-899.87627212 371.24888785 -898.56380954 369.74885314 -897.25 368.25 C-896.66347656 367.5796875 -896.07695313 366.909375 -895.47265625 366.21875 C-895.04855469 365.7340625 -894.62445312 365.249375 -894.1875 364.75 C-894.75855469 364.4921875 -895.32960938 364.234375 -895.91796875 363.96875 C-906.61796743 358.22279546 -914.22916717 346.99427514 -918.1875 335.75 C-921.86445899 320.73575078 -915.84423807 306.46446121 -908.1875 293.75 C-875.06980292 245.74125208 -782.87574841 230.65911535 -730.51147461 213.72216797 C-719.71476807 210.22991845 -708.9372671 206.68597227 -698.17709351 203.08270264 C-693.77761899 201.61078724 -689.37535686 200.14722364 -684.97349548 198.6824646 C-680.95884113 197.34510848 -676.95078154 195.98957281 -672.9453125 194.625 C-650.83714667 187.19121617 -621.54734792 177.77521226 -599.1875 188.75 C-584.52166643 196.12776643 -572.60673173 208.28705509 -562.0625 220.65625 C-559.70403481 223.28986947 -557.20283833 225.76804177 -554.6875 228.25 C-551.00527133 231.88837055 -547.4803138 235.59592698 -544.12109375 239.53515625 C-542.08822808 241.86371147 -539.99288598 244.12227948 -537.88305664 246.38085938 C-532.76473463 251.86119545 -527.86881091 257.44474435 -523.16796875 263.29296875 C-520.57689188 266.50753947 -517.89139506 269.63012108 -515.1875 272.75 C-508.70355591 267.3682403 -502.85107211 261.474659 -496.94726562 255.47070312 C-492.74360542 251.22396528 -488.46343517 247.16554871 -483.93139648 243.27124023 C-481.74346535 241.36265856 -479.70865886 239.33334836 -477.6875 237.25 C-475.03583457 234.51674487 -472.30041606 231.95105976 -469.42578125 229.45703125 C-465.13135912 225.7305327 -460.99811063 221.85156352 -456.875 217.9375 C-447.77900501 209.34815489 -438.68028958 200.89190978 -428.9375 193.03125 C-426.10650422 190.68281032 -423.39366402 188.24090098 -420.6875 185.75 C-415.36118912 180.85493872 -409.81809305 176.2882098 -404.1875 171.75 C-402.41598705 170.2924923 -400.64515983 168.83415078 -398.875 167.375 C-393.03152482 162.5962258 -387.10397126 157.9301675 -381.15332031 153.28613281 C-379.08632862 151.67094259 -377.02359217 150.05041162 -374.9609375 148.4296875 C-364.19168157 139.98727711 -353.2554983 131.79598109 -342.1875 123.75 C-341.57317108 123.30022797 -340.95884216 122.85045593 -340.32589722 122.38705444 C-329.45862219 114.43208205 -318.43398535 106.76400897 -307.21069336 99.32006836 C-304.75144914 97.68846145 -302.29638968 96.05070337 -299.84179688 94.41210938 C-285.26367334 84.7015517 -270.55579833 75.1654617 -255.4375 66.3125 C-254.08108398 65.51501343 -254.08108398 65.51501343 -252.69726562 64.70141602 C-243.19677607 59.13630647 -233.62753757 53.69423622 -224.01367188 48.32763672 C-222.16455617 47.29541612 -220.31683971 46.26068391 -218.47070312 45.22314453 C-164.47948366 14.92456575 -58.82962726 -41.83111687 0 0 Z " fill="#000000" transform="translate(946.1875,17.25)"/>
<path d="M0 0 C9.78244907 9.34548088 17.96212577 20.27148694 25.3359375 31.58984375 C27.22788731 31.48382286 27.22788731 31.48382286 29.3359375 30.58984375 C31.19837799 28.27270722 31.19837799 28.27270722 32.8984375 25.33984375 C52.08114022 -4.6064866 82.12834749 -26.43262778 116.8984375 -34.28515625 C150.61480694 -41.07138093 187.26219481 -35.00873493 216.32421875 -16.5078125 C229.22904763 -7.37545169 241.28453396 3.1507487 250.8359375 15.77734375 C251.40127197 16.52419434 251.96660645 17.27104492 252.54907227 18.04052734 C274.97629458 48.06609645 280.50794708 83.73571768 275.4296875 120.265625 C271.95063832 142.13915083 261.79351276 162.8928869 247.3359375 179.58984375 C246.65192871 180.38914307 246.65192871 180.38914307 245.95410156 181.20458984 C222.46979982 208.38803177 191.63267141 224.67332752 155.64453125 227.44042969 C119.63598216 229.77093223 86.71350037 219.28702422 59.046875 195.98046875 C47.13759147 185.47833399 36.98405045 173.5481019 29.3359375 159.58984375 C26.97600559 159.18223242 26.97600559 159.18223242 24.3359375 159.58984375 C22.46859032 161.66383122 22.46859032 161.66383122 21.0234375 164.46484375 C12.44668652 178.90698572 0.70576882 191.47903152 -12.6640625 201.58984375 C-13.42847656 202.18152344 -14.19289063 202.77320313 -14.98046875 203.3828125 C-42.18575796 223.49907542 -77.44691146 231.3975064 -110.80517578 226.76342773 C-114.45767219 226.17304061 -118.06059057 225.42652723 -121.6640625 224.58984375 C-122.36160645 224.42887207 -123.05915039 224.26790039 -123.77783203 224.10205078 C-157.60674001 215.94833622 -186.86277945 193.32384532 -205.26489258 164.0402832 C-223.04247382 134.83398711 -228.47287487 98.86946043 -220.6640625 65.58984375 C-220.37402344 64.32011719 -220.08398438 63.05039062 -219.78515625 61.7421875 C-211.43179815 27.9442909 -189.17703058 -0.33361078 -159.68945312 -18.63574219 C-145.57157547 -27.09412079 -129.09061137 -33.56080969 -112.6640625 -35.41015625 C-111.88546875 -35.5184375 -111.106875 -35.62671875 -110.3046875 -35.73828125 C-68.5515801 -40.66566659 -30.92193893 -27.97483331 0 0 Z " fill="#FEFEFE" transform="translate(407.6640625,390.41015625)"/>
<path d="M0 0 C0.84691406 0.01804688 1.69382812 0.03609375 2.56640625 0.0546875 C3.18386719 0.07789063 3.80132813 0.10109375 4.4375 0.125 C2.35770767 6.58330251 0.01210105 12.89487552 -2.4765625 19.20703125 C-5.49631985 27.32127132 -5.19265112 35.54864913 -3.5625 44 C-3.38976562 44.89847656 -3.21703125 45.79695313 -3.0390625 46.72265625 C-2.88179687 47.51542969 -2.72453125 48.30820313 -2.5625 49.125 C-1.9375 52.4375 -1.9375 52.4375 -2.5625 55.125 C-10.07420559 63.49647912 -23.46488353 67.84655759 -33.78222656 71.58959961 C-70.34692614 84.97077817 -105.7695041 102.65175715 -139.75683594 121.56396484 C-142.68081566 123.1908293 -145.60989752 124.80827426 -148.5390625 126.42578125 C-162.97202267 134.42479875 -177.19020063 142.75732218 -191.35693359 151.21728516 C-194.39414664 153.0248086 -197.43892826 154.81851816 -200.48828125 156.60546875 C-212.33234038 163.5473721 -224.03420239 170.66939824 -235.5625 178.125 C-236.33609863 178.62386719 -237.10969727 179.12273437 -237.90673828 179.63671875 C-247.56277015 185.88792973 -256.858226 192.4059159 -265.77783203 199.67138672 C-267.68823133 201.22740825 -269.60730439 202.77229918 -271.52734375 204.31640625 C-279.42543969 210.68358541 -287.23145555 217.15182712 -294.94287109 223.74365234 C-296.62024396 225.17424862 -298.30385817 226.59724562 -299.98828125 228.01953125 C-306.67785753 233.68682984 -313.21131026 239.4851408 -319.59350586 245.49755859 C-322.51462457 248.24627618 -325.47186204 250.93560582 -328.5 253.56640625 C-332.48671789 257.0346314 -336.34474178 260.62380993 -340.1875 264.25 C-340.8777124 264.89308105 -341.5679248 265.53616211 -342.27905273 266.19873047 C-345.64816217 269.34282091 -348.96733115 272.51176271 -352.18359375 275.8125 C-360.1390101 283.85092549 -366.42989411 287.35320833 -377.5625 290.125 C-404.48838074 297.83406959 -431.85001747 310.02956646 -452.796875 329.04296875 C-455.5625 331.125 -455.5625 331.125 -457.5859375 331.21875 C-460.40986208 329.65610399 -462.73181384 327.71663565 -465.1875 325.625 C-468.66652974 322.56105006 -468.66652974 322.56105006 -472.5625 320.125 C-471.19639732 317.08773042 -469.63176193 314.91584974 -467.33203125 312.515625 C-466.69330078 311.84273438 -466.05457031 311.16984375 -465.39648438 310.4765625 C-464.72939453 309.78304688 -464.06230469 309.08953125 -463.375 308.375 C-458.8790801 303.66882315 -454.46774909 298.92295235 -450.20385742 294.00488281 C-447.79378005 291.24456811 -445.30814407 288.55781738 -442.8125 285.875 C-441.87991726 284.8700617 -440.94764151 283.86483846 -440.015625 282.859375 C-439.49202393 282.29565186 -438.96842285 281.73192871 -438.42895508 281.15112305 C-437.01201743 279.6129719 -435.60469512 278.06595646 -434.2019043 276.51489258 C-427.53759296 269.16802923 -420.66276809 262.06944295 -413.63647461 255.06860352 C-411.86258997 253.30012781 -410.09418223 251.52629956 -408.32617188 249.75195312 C-403.11241715 244.53510045 -397.89893635 239.3823574 -392.28198242 234.5949707 C-389.46609642 232.18769403 -386.77204857 229.65048166 -384.0625 227.125 C-379.92732404 223.28905285 -375.76271446 219.50255034 -371.49609375 215.8125 C-369.28397948 213.88192755 -367.1116109 211.91076111 -364.9375 209.9375 C-360.93519974 206.32133284 -356.85981703 202.80474469 -352.75 199.3125 C-348.0210082 195.29231075 -343.40825823 191.17693594 -338.875 186.9375 C-333.30122484 181.7383065 -327.51096951 176.89309436 -321.5625 172.125 C-320.33474903 171.11863568 -319.10826634 170.11072279 -317.8828125 169.1015625 C-287.87093372 144.42999453 -255.37906544 123.30167864 -222.37939453 102.87304688 C-219.68355582 101.20012217 -216.995039 99.51608192 -214.30859375 97.828125 C-195.72060716 86.17880463 -176.72780554 75.24650793 -157.38476562 64.90063477 C-152.51077583 62.28859602 -147.67491689 59.63462526 -142.8984375 56.84765625 C-128.55161955 48.48343903 -113.84238094 41.6121618 -98.5625 35.125 C-96.48689674 34.23586949 -94.41137396 33.34655106 -92.3359375 32.45703125 C-86.99656656 30.17733771 -81.64365164 27.93108391 -76.28759766 25.69091797 C-72.85542261 24.25179816 -69.43193784 22.79269028 -66.00881958 21.33218384 C-14.97606003 -0.42186085 -14.97606003 -0.42186085 0 0 Z " fill="#DDE6EE" transform="translate(898.5625,43.875)"/>
<path d="M0 0 C0.33 0 0.66 0 1 0 C1.13535156 1.06476562 1.27070313 2.12953125 1.41015625 3.2265625 C3.22080482 15.94235404 7.34352416 25.44093254 14.4375 36.25 C17.43938779 41.14315758 18.13379841 45.36033031 17 51 C15.375 54.3125 15.375 54.3125 13 57 C12.175 57.94875 11.35 58.8975 10.5 59.875 C6.05481417 63.41300505 0.35166588 62.45328318 -5 62 C-8.75 61.5 -8.75 61.5 -11 61 C-11 62.65 -11 64.3 -11 66 C-3.88088122 69.05105091 1.69293103 70.27319338 9.1875 67.8125 C15.27450538 65.26334315 18.64109293 60.51820447 22 55 C24.45348824 47.63953528 23.73109156 40.64854246 20.3125 33.75 C18.03346432 29.61857275 15.54301208 25.64355861 12.96875 21.69140625 C11.72748539 19.52419828 11.2322309 17.47712958 11 15 C14.90977364 18.1989057 18.52255208 21.50688692 22.02075195 25.15576172 C43.51890371 47.41676256 74.97978524 63.04307763 106.22412109 64.11010742 C110.02496404 64.17073468 113.82368826 64.1856163 117.625 64.1875 C118.90246094 64.19974609 120.17992187 64.21199219 121.49609375 64.22460938 C134.09849985 64.24376197 145.88752125 62.67966093 157.9375 59 C158.81728516 58.73960937 159.69707031 58.47921875 160.60351562 58.2109375 C162.29652905 57.70949149 163.9884978 57.20449938 165.67919922 56.6953125 C168.77791917 55.76693522 171.88746705 54.88082565 175 54 C163.29395996 67.99014542 149.54606075 78.56976401 134 88 C132.97261719 88.63164063 131.94523437 89.26328125 130.88671875 89.9140625 C67.51542584 127.51900555 -0.43078179 137.64587486 -71.93530273 119.48876953 C-89.53172908 114.84421616 -106.63552843 108.98534718 -123 101 C-123.70672852 100.65888184 -124.41345703 100.31776367 -125.14160156 99.96630859 C-143.89868449 90.80954256 -159.29644981 78.70355019 -174 64 C-174.66902344 63.36578125 -175.33804687 62.7315625 -176.02734375 62.078125 C-180.82828903 57.48335528 -184.53747669 52.66594724 -188 47 C-184.50590897 48.35621507 -181.09624075 49.85727135 -177.68603516 51.41113281 C-142.17485765 67.4271684 -102.61344446 68.69110333 -66 55 C-39.24677055 43.96274018 -18.0742535 24.85100824 -1.27734375 1.6171875 C-0.85582031 1.08351563 -0.43429687 0.54984375 0 0 Z " fill="#DCE5EC" transform="translate(434,560)"/>
<path d="M0 0 C-0.92969927 1.26233006 -1.86263333 2.52227803 -2.796875 3.78125 C-3.57562988 4.8340918 -3.57562988 4.8340918 -4.37011719 5.90820312 C-5.90750878 7.88129647 -7.5254625 9.69042884 -9.25 11.5 C-20.09794572 23.74302521 -27.43512855 39.25079414 -32.23828125 54.734375 C-33 57 -33 57 -34 58 C-35.92324127 58.29703393 -37.84763013 58.58786241 -39.77612305 58.84863281 C-57.31672158 61.25131225 -74.15302728 66.05967308 -90 74 C-90.60392578 74.30131836 -91.20785156 74.60263672 -91.83007812 74.91308594 C-102.96373376 80.5880075 -115.98728272 88.66834052 -122 100 C-121.66189866 102.15170287 -121.66189866 102.15170287 -121 104 C-117.1292247 104.44999511 -117.1292247 104.44999511 -115.39453125 102.53125 C-114.87246094 101.8609375 -114.35039063 101.190625 -113.8125 100.5 C-109.97208922 95.83485893 -105.70267649 91.79443425 -101 88 C-100.67 88 -100.34 88 -100 88 C-99.90912109 89.75376953 -99.90912109 89.75376953 -99.81640625 91.54296875 C-99.73195966 93.09115614 -99.64731375 94.63933268 -99.5625 96.1875 C-99.52318359 96.95642578 -99.48386719 97.72535156 -99.44335938 98.51757812 C-99.22492966 102.43251075 -98.91307892 106.17120688 -98 110 C-96.35 110 -94.7 110 -93 110 C-92.9906543 109.23333008 -92.98130859 108.46666016 -92.97167969 107.67675781 C-92.91797227 104.20051897 -92.83432424 100.72562526 -92.75 97.25 C-92.73582031 96.0434375 -92.72164063 94.836875 -92.70703125 93.59375 C-92.67480469 92.43359375 -92.64257812 91.2734375 -92.609375 90.078125 C-92.58842773 89.00981445 -92.56748047 87.94150391 -92.54589844 86.84082031 C-91.87252798 83.33664381 -90.7532915 82.20250866 -88 80 C-85.68687464 78.74454906 -83.47158241 77.65335816 -81.0625 76.625 C-80.3722876 76.32827393 -79.6820752 76.03154785 -78.97094727 75.72583008 C-65.207438 70.02152734 -50.83524099 66.32172654 -36 65 C-36.144375 65.78375 -36.28875 66.5675 -36.4375 67.375 C-39.6076864 87.80509014 -40.02256393 110.84989248 -35 131 C-34.83902832 131.68449219 -34.67805664 132.36898437 -34.51220703 133.07421875 C-31.75586756 144.53381261 -27.08635722 154.82263591 -21.74682617 165.29858398 C-21 167 -21 167 -21 169 C-61.02290769 170.65993626 -99.49619731 156.08418392 -131 132 C-131.83144531 131.36916504 -131.83144531 131.36916504 -132.6796875 130.72558594 C-145.22892867 121.1185487 -154.52561536 109.81672246 -158 94 C-159.7325016 73.13630215 -155.67795778 54.87615774 -142.8125 38.125 C-118.87273654 10.83530377 -81.18618988 2.68471544 -46.59838867 0.1484375 C-31.10832043 -0.73645976 -15.50462461 -0.27996405 0 0 Z " fill="#DCE5ED" transform="translate(216,388)"/>
<path d="M0 0 C3.40653478 2.57328167 5.01110558 4.95890131 6.19140625 8.98046875 C7.52170195 21.78622956 6.05026469 33.78120721 2.19140625 45.98046875 C1.73081502 47.49450122 1.27120861 49.00883358 0.8125 50.5234375 C-0.3590239 54.35439107 -1.57221254 58.1699824 -2.80859375 61.98046875 C-1.84179688 62.00625 -0.875 62.03203125 0.12109375 62.05859375 C11.10229791 62.53698284 20.0008764 63.94428142 28.19140625 71.98046875 C30.28751033 74.45886345 32.15724664 77.06259594 34.00390625 79.73046875 C34.52017578 80.47345215 35.03644531 81.21643555 35.56835938 81.98193359 C44.85186936 95.6059722 54.04832742 110.90325409 53.19140625 127.98046875 C51.20296508 133.31786348 48.28472977 136.43380699 43.19140625 138.98046875 C17.91299561 141.01614096 -4.19142377 131.14677243 -26.80859375 120.98046875 C-26.92847656 121.85485596 -27.04835938 122.72924316 -27.171875 123.63012695 C-27.79051852 126.88535896 -28.70289183 129.54414035 -29.99609375 132.5859375 C-30.44315674 133.64312988 -30.89021973 134.70032227 -31.35083008 135.78955078 C-31.83189209 136.90442871 -32.3129541 138.01930664 -32.80859375 139.16796875 C-33.30190186 140.31894043 -33.79520996 141.46991211 -34.3034668 142.65576172 C-37.33122939 149.67424505 -40.40545574 156.67086936 -43.62109375 163.60546875 C-43.95689453 164.3430542 -44.29269531 165.08063965 -44.63867188 165.84057617 C-47.5740873 172.04114057 -51.01965456 178.12117595 -56.80859375 181.98046875 C-61.23068175 182.40841275 -63.65568991 182.60932539 -67.55859375 180.48046875 C-73.59663195 173.77153742 -74.96467428 166.76897703 -74.94140625 157.97265625 C-74.94272552 157.18199265 -74.9440448 156.39132904 -74.94540405 155.57670593 C-74.94732035 153.00292036 -74.94098546 150.42924326 -74.93359375 147.85546875 C-74.9322644 146.54822342 -74.9322644 146.54822342 -74.9309082 145.21456909 C-74.91324237 130.45153439 -74.57425875 115.72562903 -73.80859375 100.98046875 C-74.59496216 100.74263672 -74.59496216 100.74263672 -75.3972168 100.5 C-81.73658495 98.49510646 -87.64233094 95.87531416 -93.62109375 92.98046875 C-94.61141602 92.50279053 -95.60173828 92.0251123 -96.62207031 91.53295898 C-103.50984274 88.17629449 -110.31976968 84.6894082 -117.05859375 81.04296875 C-117.89753174 80.59501953 -118.73646973 80.14707031 -119.60083008 79.68554688 C-120.37579834 79.25822266 -121.1507666 78.83089844 -121.94921875 78.390625 C-122.62500977 78.02074463 -123.30080078 77.65086426 -123.99707031 77.26977539 C-126.76822426 75.29747566 -128.54771989 73.17614059 -129.27734375 69.83203125 C-129.33794511 65.5141845 -129.05905408 63.39031293 -126.74609375 59.60546875 C-120.67431781 54.17962642 -115.19490259 53.53754357 -107.3671875 53.65234375 C-106.03833275 53.6551535 -106.03833275 53.6551535 -104.68263245 53.65802002 C-102.81938889 53.66471078 -100.95615868 53.67856559 -99.09301758 53.69921875 C-96.25133088 53.73041126 -93.41020051 53.74020036 -90.56835938 53.74609375 C-88.75129537 53.75526402 -86.93423696 53.76563986 -85.1171875 53.77734375 C-84.27328964 53.78159363 -83.42939178 53.78584351 -82.55992126 53.79022217 C-78.20453632 53.84267185 -74.09701536 54.1162901 -69.80859375 54.98046875 C-69.84984375 53.86671875 -69.89109375 52.75296875 -69.93359375 51.60546875 C-69.89815036 41.57498845 -67.42337148 32.57609873 -60.49609375 25.16796875 C-48.12102159 13.52487868 -17.97998652 -10.13558635 0 0 Z " fill="#DCE5ED" transform="translate(343.80859375,384.01953125)"/>
<path d="M0 0 C9.48579882 0.45274714 18.44564247 1.9149511 27.6875 4.0625 C28.3540863 4.21583801 29.02067261 4.36917603 29.7074585 4.52716064 C59.45748623 11.39879669 95.07568419 20.50845392 118 42 C118.61875 42.56589844 119.2375 43.13179688 119.875 43.71484375 C123.97924234 47.90153739 126.61633605 52.69220051 129.25 57.875 C129.5795166 58.52275391 129.9090332 59.17050781 130.24853516 59.83789062 C134.6030455 68.8097411 136.56571585 77.21048582 136.5 87.1875 C136.49500488 88.19055176 136.49000977 89.19360352 136.48486328 90.22705078 C136.19779945 102.56287652 132.88093082 113.29761835 125 123 C124.36449219 123.79664063 123.72898437 124.59328125 123.07421875 125.4140625 C100.66949027 151.87376012 64.88311495 162.3380732 31.46777344 165.21826172 C26.64839314 165.57215856 21.82873988 165.81860951 17 166 C18.2442893 161.98540622 19.74458364 158.43737847 21.75 154.75 C33.89835373 130.60144319 35.67229518 104.58081595 36 78 C52.18214146 80.00124888 68.68650646 85.1772635 83 93 C84.34106405 95.6821281 84.21450419 97.88398032 84.31640625 100.8828125 C84.35830078 102.04941406 84.40019531 103.21601563 84.44335938 104.41796875 C84.48267578 105.64128906 84.52199219 106.86460937 84.5625 108.125 C84.60568359 109.35605469 84.64886719 110.58710938 84.69335938 111.85546875 C84.79968704 114.90352853 84.90171781 117.9516719 85 121 C86.65 121 88.3 121 90 121 C90.97299156 116.14270355 91.12038805 111.5499375 91.0625 106.625 C91.05798828 105.88894531 91.05347656 105.15289062 91.04882812 104.39453125 C91.03715142 102.59631842 91.01922011 100.79814803 91 99 C98.03137193 102.9931248 104.26762886 108.41583146 109 115 C110.65 114.67 112.3 114.34 114 114 C112.7980688 106.16053828 104.37628668 100.05747711 98.5 95.4375 C80.55681066 82.649882 59.45569228 74.69718671 37.59765625 71.86328125 C35 71 35 71 33.73046875 68.87890625 C32.30105426 63.24533151 32.30105426 63.24533151 31.70800781 60.63452148 C26.72856044 38.78706342 16.37609812 19.00510732 1.25 2.4609375 C0 1 0 1 0 0 Z " fill="#DCE5ED" transform="translate(656,392)"/>
<path d="M0 0 C0.99 0.66 1.98 1.32 3 2 C3.5 4.75 3.5 4.75 3 8 C-6.42131773 21.03369749 -25.74520826 25.67822997 -40.12103271 31.20532227 C-45.77316942 33.37904128 -51.41524227 35.57848535 -57.05771637 37.77713776 C-58.92522076 38.50455113 -60.79314543 39.23088521 -62.66107178 39.95721436 C-72.27614694 43.70111593 -81.84625026 47.54190171 -91.375 51.5 C-92.03486908 51.77402649 -92.69473816 52.04805298 -93.37460327 52.3303833 C-95.97735427 53.41213654 -98.57963219 54.49500839 -101.18086243 55.58041382 C-105.93991057 57.56494649 -110.70993771 59.52156333 -115.484375 61.46875 C-131.11373716 67.84936791 -146.64583411 74.40835326 -162.09521484 81.21362305 C-169.12150423 84.30807639 -176.15308064 87.38241946 -183.25 90.3125 C-184.23238647 90.72036743 -184.23238647 90.72036743 -185.23461914 91.13647461 C-193.22751553 94.39827756 -202.17619528 95.75060797 -210.625 93.2109375 C-214.02739064 91.57228612 -215.89263114 90.1610533 -218 87 C-218.4878598 83.75467179 -218.26706983 82.40734894 -216.453125 79.640625 C-203.07479649 65.12371534 -188.02076533 58.35197411 -169.83984375 51.3515625 C-169.18234571 51.09738178 -168.52484768 50.84320107 -167.84742546 50.5813179 C-152.3140552 44.5933768 -136.56048377 39.3014545 -120.75085449 34.09698486 C-117.83474437 33.13489788 -114.92126916 32.16497231 -112.00780678 31.19490242 C-96.38409205 25.99458304 -80.72242302 20.94151493 -64.99206734 16.07324219 C-57.13645749 13.64036045 -49.31530698 11.14388382 -41.5625 8.3984375 C-40.455933 8.0098909 -40.455933 8.0098909 -39.32701111 7.61349487 C-36.48941618 6.61542748 -33.65353174 5.61514792 -30.83007812 4.57763672 C-20.45254798 0.78442264 -11.1384116 -1.33953697 0 0 Z " fill="#DCE5ED" transform="translate(313,252)"/>
<path d="M0 0 C5.03982694 3.95986402 7.50269007 8.03064812 8.33203125 14.3671875 C9.10040943 29.34071109 1.02888026 41.3976963 -8.29296875 52.3984375 C-21.44008989 66.39869962 -39.20806773 76.04885326 -58.578125 77.0859375 C-64.89549338 76.91821976 -69.96161774 74.3541433 -74.828125 70.4609375 C-79.30947071 64.82724576 -81.7912549 59.80783618 -81.46484375 52.48046875 C-78.59028636 34.75819755 -66.33593553 19.61469164 -52.140625 9.3359375 C-37.72791284 -0.68678622 -16.6012237 -10.61706167 0 0 Z " fill="#DCE5ED" transform="translate(612.015625,395.2890625)"/>
<path d="M0 0 C4.45973077 4.05604824 7.50851714 8.38245752 8.3359375 14.47265625 C8.57254236 30.15955863 0.8273884 42.51317448 -9.6328125 53.66015625 C-22.53915938 66.41741992 -38.81938875 76.18365931 -57.25 76.5 C-58.36713379 76.52803711 -58.36713379 76.52803711 -59.50683594 76.55664062 C-65.06944702 76.49233298 -69.38962732 75.15740675 -74 72 C-76.05859375 69.74609375 -76.05859375 69.74609375 -77.4375 67.4375 C-77.91058594 66.67308594 -78.38367188 65.90867187 -78.87109375 65.12109375 C-82.3384376 58.60632658 -81.35222449 52.57427448 -79.4375 45.75 C-72.6554659 25.3332515 -57.41066695 11.36749216 -38.8125 1.5625 C-26.89558092 -4.00188153 -11.7440754 -8.09772941 0 0 Z " fill="#DCE5ED" transform="translate(566,486)"/>
<path d="M0 0 C3.40653478 2.57328167 5.01110558 4.95890131 6.19140625 8.98046875 C7.52170195 21.78622956 6.05026469 33.78120721 2.19140625 45.98046875 C1.73081502 47.49450122 1.27120861 49.00883358 0.8125 50.5234375 C-0.3590239 54.35439107 -1.57221254 58.1699824 -2.80859375 61.98046875 C-1.84179688 62.00625 -0.875 62.03203125 0.12109375 62.05859375 C11.10229791 62.53698284 20.0008764 63.94428142 28.19140625 71.98046875 C30.28751033 74.45886345 32.15724664 77.06259594 34.00390625 79.73046875 C34.52017578 80.47345215 35.03644531 81.21643555 35.56835938 81.98193359 C44.85186936 95.6059722 54.04832742 110.90325409 53.19140625 127.98046875 C51.20296508 133.31786348 48.28472977 136.43380699 43.19140625 138.98046875 C17.91299561 141.01614096 -4.19142377 131.14677243 -26.80859375 120.98046875 C-26.92847656 121.85485596 -27.04835938 122.72924316 -27.171875 123.63012695 C-27.79051852 126.88535896 -28.70289183 129.54414035 -29.99609375 132.5859375 C-30.44315674 133.64312988 -30.89021973 134.70032227 -31.35083008 135.78955078 C-31.83189209 136.90442871 -32.3129541 138.01930664 -32.80859375 139.16796875 C-33.30190186 140.31894043 -33.79520996 141.46991211 -34.3034668 142.65576172 C-37.33122939 149.67424505 -40.40545574 156.67086936 -43.62109375 163.60546875 C-43.95689453 164.3430542 -44.29269531 165.08063965 -44.63867188 165.84057617 C-47.5740873 172.04114057 -51.01965456 178.12117595 -56.80859375 181.98046875 C-61.23068175 182.40841275 -63.65568991 182.60932539 -67.55859375 180.48046875 C-73.59663195 173.77153742 -74.96467428 166.76897703 -74.94140625 157.97265625 C-74.94272552 157.18199265 -74.9440448 156.39132904 -74.94540405 155.57670593 C-74.94732035 153.00292036 -74.94098546 150.42924326 -74.93359375 147.85546875 C-74.9322644 146.54822342 -74.9322644 146.54822342 -74.9309082 145.21456909 C-74.91324237 130.45153439 -74.57425875 115.72562903 -73.80859375 100.98046875 C-74.59496216 100.74263672 -74.59496216 100.74263672 -75.3972168 100.5 C-81.73658495 98.49510646 -87.64233094 95.87531416 -93.62109375 92.98046875 C-94.61141602 92.50279053 -95.60173828 92.0251123 -96.62207031 91.53295898 C-103.50984274 88.17629449 -110.31976968 84.6894082 -117.05859375 81.04296875 C-117.89753174 80.59501953 -118.73646973 80.14707031 -119.60083008 79.68554688 C-120.37579834 79.25822266 -121.1507666 78.83089844 -121.94921875 78.390625 C-122.62500977 78.02074463 -123.30080078 77.65086426 -123.99707031 77.26977539 C-126.76822426 75.29747566 -128.54771989 73.17614059 -129.27734375 69.83203125 C-129.33794511 65.5141845 -129.05905408 63.39031293 -126.74609375 59.60546875 C-120.67431781 54.17962642 -115.19490259 53.53754357 -107.3671875 53.65234375 C-106.03833275 53.6551535 -106.03833275 53.6551535 -104.68263245 53.65802002 C-102.81938889 53.66471078 -100.95615868 53.67856559 -99.09301758 53.69921875 C-96.25133088 53.73041126 -93.41020051 53.74020036 -90.56835938 53.74609375 C-88.75129537 53.75526402 -86.93423696 53.76563986 -85.1171875 53.77734375 C-84.27328964 53.78159363 -83.42939178 53.78584351 -82.55992126 53.79022217 C-78.20453632 53.84267185 -74.09701536 54.1162901 -69.80859375 54.98046875 C-69.84984375 53.86671875 -69.89109375 52.75296875 -69.93359375 51.60546875 C-69.89815036 41.57498845 -67.42337148 32.57609873 -60.49609375 25.16796875 C-48.12102159 13.52487868 -17.97998652 -10.13558635 0 0 Z M-50.80859375 26.98046875 C-51.95213623 27.85846057 -53.09753477 28.73404962 -54.24609375 29.60546875 C-59.7029499 34.66304274 -61.38980432 39.88330368 -61.99609375 47.04296875 C-62.13437293 48.40896023 -62.27368005 49.77484807 -62.4140625 51.140625 C-62.60935547 53.04134766 -62.60935547 53.04134766 -62.80859375 54.98046875 C-63.13270322 56.98198422 -63.46445959 58.98229889 -63.80859375 60.98046875 C-64.74367516 60.96714508 -64.74367516 60.96714508 -65.69764709 60.95355225 C-72.20287887 60.86485884 -78.70793805 60.80464316 -85.21362305 60.76074219 C-87.63947531 60.74066304 -90.06527938 60.713394 -92.4909668 60.67871094 C-95.98368237 60.63003197 -99.47575634 60.60746225 -102.96875 60.58984375 C-104.04818375 60.56919861 -105.12761749 60.54855347 -106.23976135 60.52728271 C-112.67119627 60.52537871 -116.54299254 61.21140683 -121.80859375 64.98046875 C-121.93073269 67.32195106 -121.93073269 67.32195106 -120.80859375 69.98046875 C-115.91751978 73.80907715 -110.04652636 76.51001111 -104.50390625 79.265625 C-103.73988495 79.64859238 -102.97586365 80.03155975 -102.18869019 80.4261322 C-100.5846202 81.22884259 -98.97955457 82.02956621 -97.37353516 82.82836914 C-94.94391356 84.03783156 -92.51867449 85.25576187 -90.09375 86.47460938 C-82.45248486 90.29818293 -74.85660428 94.06924352 -66.80859375 96.98046875 C-66.66731094 106.35222839 -66.92576966 115.67895945 -67.30859375 125.04296875 C-67.64952651 133.73010462 -67.93609839 142.41139175 -67.99609375 151.10546875 C-68.00898438 151.97437744 -68.021875 152.84328613 -68.03515625 153.73852539 C-68.04758244 161.69050786 -67.5652605 169.03191311 -61.80859375 174.98046875 C-58.30641907 174.04413254 -57.02644355 173.30880892 -54.9909668 170.2409668 C-54.16399292 168.50907104 -54.16399292 168.50907104 -53.3203125 166.7421875 C-53.01577652 166.11331635 -52.71124054 165.48444519 -52.3974762 164.83651733 C-51.41268108 162.78823268 -50.45358159 160.72914285 -49.49609375 158.66796875 C-48.82628701 157.25491799 -48.15603746 155.84207705 -47.48535156 154.42944336 C-42.65980781 144.18150183 -38.33070952 133.79625273 -34.56445312 123.10986328 C-33.35959541 119.71555806 -32.08122227 116.34986776 -30.80859375 112.98046875 C-24.7936544 113.48304326 -20.3208574 115.41248593 -14.93359375 118.04296875 C-0.47790583 124.84694068 16.52609537 132.08841505 32.69140625 132.16796875 C34.00109375 132.18214844 35.31078125 132.19632813 36.66015625 132.2109375 C39.87137765 132.00135557 41.591109 131.79685286 44.19140625 129.98046875 C47.08203686 124.19920752 44.99289496 117.5964223 43.19140625 111.79296875 C38.46635664 98.06569193 28.64974877 78.88683087 15.296875 72.00390625 C9.54039769 70.05772451 3.80062136 69.29770989 -2.22387695 68.71435547 C-5.81546166 68.34538392 -8.71233358 67.89871734 -11.80859375 65.98046875 C-11.20464983 61.23623456 -9.78645193 57.12813933 -7.99609375 52.73046875 C-3.17025025 40.27851108 3.34506467 21.85221817 -1.70703125 8.62890625 C-2.72010538 6.81838387 -2.72010538 6.81838387 -4.80859375 5.98046875 C-21.8169035 4.40562525 -38.68024255 16.311631 -50.80859375 26.98046875 Z " fill="#060606" transform="translate(343.80859375,384.01953125)"/>
<path d="M0 0 C2.92465325 0.08247395 5.72209996 0.30629818 8.625 0.625 C9.57375 0.71765137 10.5225 0.81030273 11.5 0.90576172 C17.22294299 1.47187383 22.93733618 2.10470288 28.65052795 2.76057434 C52.5394009 5.48555661 75.96470904 6.60426589 100 6 C100.69403931 5.98348389 101.38807861 5.96696777 102.10314941 5.94995117 C118.10476502 5.65688207 118.10476502 5.65688207 134 4 C136.6793948 3.89248014 139.31632049 3.9529179 142 4 C142.625 6.375 142.625 6.375 143 9 C140.06909605 11.93090395 136.70075619 11.71996449 132.75 12.125 C131.99847656 12.21136719 131.24695313 12.29773438 130.47265625 12.38671875 C126.2945225 12.84609471 122.21000413 13.0938536 118 13 C117.79375 13.66 117.5875 14.32 117.375 15 C113.24337777 24.01444851 105.51735451 32.0293603 96.4453125 36.15625 C82.03058367 41.13002225 67.19124712 41.99267689 53 36 C49.79597759 34.22736038 46.88296636 32.25231747 44 30 C42.78183594 29.10474609 42.78183594 29.10474609 41.5390625 28.19140625 C38.6466689 25.69504809 36.60799805 23.0337705 34.375 19.9375 C30.51795893 13.84811741 30.51795893 13.84811741 24.62744141 10.41577148 C23.71140137 10.31852783 22.79536133 10.22128418 21.8515625 10.12109375 C20.84609375 10.00443359 19.840625 9.88777344 18.8046875 9.76757812 C17.75539063 9.65865234 16.70609375 9.54972656 15.625 9.4375 C13.55400707 9.21322787 11.48365297 8.98295864 9.4140625 8.74609375 C8.4957666 8.64997803 7.5774707 8.5538623 6.63134766 8.45483398 C3.84220763 7.97272526 1.54485984 7.23605079 -1 6 C-1.9375 4 -1.9375 4 -2 2 C-1.34 1.34 -0.68 0.68 0 0 Z " fill="#040404" transform="translate(349,635)"/>
<path d="M0 0 C4.45973077 4.05604824 7.50851714 8.38245752 8.3359375 14.47265625 C8.57254236 30.15955863 0.8273884 42.51317448 -9.6328125 53.66015625 C-22.53915938 66.41741992 -38.81938875 76.18365931 -57.25 76.5 C-58.36713379 76.52803711 -58.36713379 76.52803711 -59.50683594 76.55664062 C-65.06944702 76.49233298 -69.38962732 75.15740675 -74 72 C-76.05859375 69.74609375 -76.05859375 69.74609375 -77.4375 67.4375 C-77.91058594 66.67308594 -78.38367188 65.90867187 -78.87109375 65.12109375 C-82.3384376 58.60632658 -81.35222449 52.57427448 -79.4375 45.75 C-72.6554659 25.3332515 -57.41066695 11.36749216 -38.8125 1.5625 C-26.89558092 -4.00188153 -11.7440754 -8.09772941 0 0 Z M-63.875 31.375 C-69.55990027 39.1969758 -74.08520232 47.75206838 -73.453125 57.62109375 C-72.53192943 62.45737049 -70.34889212 64.98833091 -66.5 67.875 C-55.9107565 71.27868541 -45.85139673 68.22811297 -36 64 C-32.1159492 61.92752169 -28.55908002 59.58536945 -25 57 C-24.22140625 56.46632813 -23.4428125 55.93265625 -22.640625 55.3828125 C-11.83267426 47.59363421 -4.2032994 36.6098982 0 24 C0.1447963 22.04524991 0.22067502 20.0848862 0.25 18.125 C0.27578125 17.09632813 0.3015625 16.06765625 0.328125 15.0078125 C-0.05765114 11.47153121 -0.76820277 9.76630329 -3 7 C-23.86906241 -6.53668913 -50.8988186 15.82644784 -63.875 31.375 Z " fill="#070707" transform="translate(566,486)"/>
<path d="M0 0 C5.03982694 3.95986402 7.50269007 8.03064812 8.33203125 14.3671875 C9.10040943 29.34071109 1.02888026 41.3976963 -8.29296875 52.3984375 C-21.44008989 66.39869962 -39.20806773 76.04885326 -58.578125 77.0859375 C-64.89549338 76.91821976 -69.96161774 74.3541433 -74.828125 70.4609375 C-79.30947071 64.82724576 -81.7912549 59.80783618 -81.46484375 52.48046875 C-78.59028636 34.75819755 -66.33593553 19.61469164 -52.140625 9.3359375 C-37.72791284 -0.68678622 -16.6012237 -10.61706167 0 0 Z M-58.015625 24.7109375 C-59.10037109 25.77634766 -59.10037109 25.77634766 -60.20703125 26.86328125 C-68.23322748 35.2854568 -73.43219716 45.26981232 -73.29296875 56.98046875 C-72.89853097 60.86373644 -71.68782115 62.89809945 -69.015625 65.7109375 C-63.47748672 69.97104387 -56.66313251 69.37644451 -50.015625 68.7109375 C-32.92342077 65.08073483 -16.55442499 53.22999516 -7.015625 38.7109375 C-2.43256749 30.73136735 1.79767768 23.14524858 0.984375 13.7109375 C-1.75447623 8.62449949 -4.5257458 5.54089723 -10.015625 3.7109375 C-29.33268878 1.71360447 -44.74796492 11.66403716 -58.015625 24.7109375 Z " fill="#060606" transform="translate(612.015625,395.2890625)"/>
<path d="M0 0 C5.66627197 -0.10407438 11.25822565 -0.01783793 16.90625 0.46875 C27.54681049 1.25966885 38.21019921 1.36098248 48.875 1.5625 C51.02735034 1.60579347 53.17969419 1.64941079 55.33203125 1.69335938 C60.55461862 1.79930416 65.7772717 1.90126046 71 2 C68.4834411 8.7230647 63.84917936 12.91985711 57.53515625 16.33203125 C46.32920364 21.05871268 34.20230561 22.97609045 22.5078125 19.03515625 C13.44488449 15.29422802 4.10578467 9.2380155 0 0 Z " fill="#4C6780" transform="translate(387,647)"/>
</svg>
