<?xml version="1.0" encoding="UTF-8" standalone="no"?>
<!-- Created with Inkscape (http://www.inkscape.org/) -->

<svg
   version="1.1"
   id="svg179"
   width="559.55603"
   height="170.66667"
   viewBox="0 0 559.55603 170.66667"
   sodipodi:docname="zxnext.svg"
   inkscape:version="1.2.2 (732a01da63, 2022-12-09)"
   xmlns:inkscape="http://www.inkscape.org/namespaces/inkscape"
   xmlns:sodipodi="http://sodipodi.sourceforge.net/DTD/sodipodi-0.dtd"
   xmlns="http://www.w3.org/2000/svg"
   xmlns:svg="http://www.w3.org/2000/svg">
  <defs
     id="defs183">
    <clipPath
       clipPathUnits="userSpaceOnUse"
       id="clipPath2307">
      <g
         id="g2313"
         style="stroke-width:1">
        <g
           id="g2311"
           style="stroke-width:1">
          <path
             d="M 0,128 H 419.667 V 0 H 0 Z"
             id="path2309"
             style="stroke-width:1" />
        </g>
      </g>
    </clipPath>
    <clipPath
       clipPathUnits="userSpaceOnUse"
       id="clipPath2322">
      <g
         id="g2328"
         style="stroke-width:1">
        <g
           id="g2326"
           style="stroke-width:1">
          <path
             d="M 0,128 H 419.667 V 0 H 0 Z"
             id="path2324"
             style="stroke-width:1" />
        </g>
      </g>
    </clipPath>
    <clipPath
       clipPathUnits="userSpaceOnUse"
       id="clipPath2337">
      <g
         id="g2343"
         style="stroke-width:1">
        <g
           id="g2341"
           style="stroke-width:1">
          <path
             d="M 0,128 H 419.667 V 0 H 0 Z"
             id="path2339"
             style="stroke-width:1" />
        </g>
      </g>
    </clipPath>
    <clipPath
       clipPathUnits="userSpaceOnUse"
       id="clipPath2352">
      <g
         id="g2358"
         style="stroke-width:1">
        <g
           id="g2356"
           style="stroke-width:1">
          <path
             d="M 0,128 H 419.667 V 0 H 0 Z"
             id="path2354"
             style="stroke-width:1" />
        </g>
      </g>
    </clipPath>
    <clipPath
       clipPathUnits="userSpaceOnUse"
       id="clipPath2367">
      <g
         id="g2373"
         style="stroke-width:1">
        <g
           id="g2371"
           style="stroke-width:1">
          <path
             d="M 0,128 H 419.667 V 0 H 0 Z"
             id="path2369"
             style="stroke-width:1" />
        </g>
      </g>
    </clipPath>
    <clipPath
       clipPathUnits="userSpaceOnUse"
       id="clipPath2382">
      <g
         id="g2388"
         style="stroke-width:1">
        <g
           id="g2386"
           style="stroke-width:1">
          <path
             d="M 0,128 H 419.667 V 0 H 0 Z"
             id="path2384"
             style="stroke-width:1" />
        </g>
      </g>
    </clipPath>
    <clipPath
       clipPathUnits="userSpaceOnUse"
       id="clipPath2397">
      <g
         id="g2403"
         style="stroke-width:1">
        <g
           id="g2401"
           style="stroke-width:1">
          <path
             d="M 0,128 H 419.667 V 0 H 0 Z"
             id="path2399"
             style="stroke-width:1" />
        </g>
      </g>
    </clipPath>
    <clipPath
       clipPathUnits="userSpaceOnUse"
       id="clipPath2412">
      <g
         id="g2418"
         style="stroke-width:1">
        <g
           id="g2416"
           style="stroke-width:1">
          <path
             d="M 0,128 H 419.667 V 0 H 0 Z"
             id="path2414"
             style="stroke-width:1" />
        </g>
      </g>
    </clipPath>
    <clipPath
       clipPathUnits="userSpaceOnUse"
       id="clipPath2427">
      <g
         id="g2433"
         style="stroke-width:1">
        <g
           id="g2431"
           style="stroke-width:1">
          <path
             d="M 0,128 H 419.667 V 0 H 0 Z"
             id="path2429"
             style="stroke-width:1" />
        </g>
      </g>
    </clipPath>
    <clipPath
       clipPathUnits="userSpaceOnUse"
       id="clipPath2442">
      <g
         id="g2448"
         style="stroke-width:1">
        <g
           id="g2446"
           style="stroke-width:1">
          <path
             d="M 0,128 H 419.667 V 0 H 0 Z"
             id="path2444"
             style="stroke-width:1" />
        </g>
      </g>
    </clipPath>
    <clipPath
       clipPathUnits="userSpaceOnUse"
       id="clipPath2457">
      <g
         id="g2463"
         style="stroke-width:1">
        <g
           id="g2461"
           style="stroke-width:1">
          <path
             d="M 0,128 H 419.667 V 0 H 0 Z"
             id="path2459"
             style="stroke-width:1" />
        </g>
      </g>
    </clipPath>
    <clipPath
       clipPathUnits="userSpaceOnUse"
       id="clipPath2472">
      <g
         id="g2478"
         style="stroke-width:1">
        <g
           id="g2476"
           style="stroke-width:1">
          <path
             d="M 0,128 H 419.667 V 0 H 0 Z"
             id="path2474"
             style="stroke-width:1" />
        </g>
      </g>
    </clipPath>
    <clipPath
       clipPathUnits="userSpaceOnUse"
       id="clipPath2487">
      <g
         id="g2493"
         style="stroke-width:1">
        <g
           id="g2491"
           style="stroke-width:1">
          <path
             d="M 0,128 H 419.667 V 0 H 0 Z"
             id="path2489"
             style="stroke-width:1" />
        </g>
      </g>
    </clipPath>
    <clipPath
       clipPathUnits="userSpaceOnUse"
       id="clipPath2502">
      <g
         id="g2508"
         style="stroke-width:1">
        <g
           id="g2506"
           style="stroke-width:1">
          <path
             d="M 0,128 H 419.667 V 0 H 0 Z"
             id="path2504"
             style="stroke-width:1" />
        </g>
      </g>
    </clipPath>
    <clipPath
       clipPathUnits="userSpaceOnUse"
       id="clipPath2517">
      <g
         id="g2523"
         style="stroke-width:1">
        <g
           id="g2521"
           style="stroke-width:1">
          <path
             d="M 0,128 H 419.667 V 0 H 0 Z"
             id="path2519"
             style="stroke-width:1" />
        </g>
      </g>
    </clipPath>
    <clipPath
       clipPathUnits="userSpaceOnUse"
       id="clipPath2532">
      <g
         id="g2538"
         style="stroke-width:1">
        <g
           id="g2536"
           style="stroke-width:1">
          <path
             d="M 0,128 H 419.667 V 0 H 0 Z"
             id="path2534"
             style="stroke-width:1" />
        </g>
      </g>
    </clipPath>
    <clipPath
       clipPathUnits="userSpaceOnUse"
       id="clipPath2547">
      <g
         id="g2553"
         style="stroke-width:1">
        <g
           id="g2551"
           style="stroke-width:1">
          <path
             d="M 0,128 H 419.667 V 0 H 0 Z"
             id="path2549"
             style="stroke-width:1" />
        </g>
      </g>
    </clipPath>
    <clipPath
       clipPathUnits="userSpaceOnUse"
       id="clipPath2562">
      <g
         id="g2568"
         style="stroke-width:1">
        <g
           id="g2566"
           style="stroke-width:1">
          <path
             d="M 0,128 H 419.667 V 0 H 0 Z"
             id="path2564"
             style="stroke-width:1" />
        </g>
      </g>
    </clipPath>
    <clipPath
       clipPathUnits="userSpaceOnUse"
       id="clipPath2577">
      <g
         id="g2583"
         style="stroke-width:1">
        <g
           id="g2581"
           style="stroke-width:1">
          <path
             d="M 0,128 H 419.667 V 0 H 0 Z"
             id="path2579"
             style="stroke-width:1" />
        </g>
      </g>
    </clipPath>
    <clipPath
       clipPathUnits="userSpaceOnUse"
       id="clipPath2592">
      <g
         id="g2598"
         style="stroke-width:1">
        <g
           id="g2596"
           style="stroke-width:1">
          <path
             d="M 0,128 H 419.667 V 0 H 0 Z"
             id="path2594"
             style="stroke-width:1" />
        </g>
      </g>
    </clipPath>
    <clipPath
       clipPathUnits="userSpaceOnUse"
       id="clipPath2607">
      <g
         id="g2613"
         style="stroke-width:1">
        <g
           id="g2611"
           style="stroke-width:1">
          <path
             d="M 0,128 H 419.667 V 0 H 0 Z"
             id="path2609"
             style="stroke-width:1" />
        </g>
      </g>
    </clipPath>
    <clipPath
       clipPathUnits="userSpaceOnUse"
       id="clipPath2622">
      <g
         id="g2628"
         style="stroke-width:1">
        <g
           id="g2626"
           style="stroke-width:1">
          <path
             d="M 0,128 H 419.667 V 0 H 0 Z"
             id="path2624"
             style="stroke-width:1" />
        </g>
      </g>
    </clipPath>
    <clipPath
       clipPathUnits="userSpaceOnUse"
       id="clipPath2637">
      <path
         d="m 238.8086,40.882801 h 2.557 v -2.334998 h -2.557 v -6.293002 c 0,-1.181003 0.295,-1.476 1.476,-1.476 0.368,0 0.712,0.02497 1.081,0.099 v -2.727998 c -0.59,-0.099 -1.352,-0.123 -2.04,-0.123 -2.139,0 -4.007,0.490995 -4.007,3.022995 v 7.498005 h -2.114 v 2.334998 h 2.114 v 3.810998 h 3.49 z"
         style="fill:#ffffff;fill-opacity:1;fill-rule:nonzero;stroke:none;stroke-width:0.999998"
         id="path2639" />
    </clipPath>
    <clipPath
       clipPathUnits="userSpaceOnUse"
       id="clipPath2648">
      <g
         id="g2654"
         style="stroke-width:1">
        <g
           id="g2652"
           style="stroke-width:1">
          <path
             d="M 0,128 H 419.667 V 0 H 0 Z"
             id="path2650"
             style="stroke-width:1" />
        </g>
      </g>
    </clipPath>
    <clipPath
       clipPathUnits="userSpaceOnUse"
       id="clipPath2716">
      <g
         id="g2722"
         style="stroke-width:1">
        <g
           id="g2720"
           style="stroke-width:1">
          <path
             d="m 238.4136,41.029398 h 2.557 V 38.6944 h -2.557 v -6.293002 c 0,-1.181003 0.295,-1.476 1.476,-1.476 0.368,0 0.712,0.02497 1.081,0.099 V 28.2964 c -0.59,-0.099 -1.352,-0.123 -2.04,-0.123 -2.139,0 -4.007,0.490995 -4.007,3.022995 V 38.6944 h -2.114 v 2.334998 h 2.114 v 3.810998 h 3.49 z"
             style="fill:#ffffff;fill-opacity:1;fill-rule:nonzero;stroke:none;stroke-width:0.999999"
             id="path2718" />
        </g>
      </g>
    </clipPath>
  </defs>
  <sodipodi:namedview
     id="namedview181"
     pagecolor="#ffffff"
     bordercolor="#111111"
     borderopacity="1"
     inkscape:showpageshadow="0"
     inkscape:pageopacity="0"
     inkscape:pagecheckerboard="1"
     inkscape:deskcolor="#d1d1d1"
     showgrid="false"
     inkscape:zoom="3.4144973"
     inkscape:cx="341.48511"
     inkscape:cy="96.353861"
     inkscape:window-width="1920"
     inkscape:window-height="1009"
     inkscape:window-x="-8"
     inkscape:window-y="-8"
     inkscape:window-maximized="1"
     inkscape:current-layer="g187">
    <inkscape:page
       x="0"
       y="0"
       id="page185"
       width="559.55603"
       height="170.66667" />
  </sodipodi:namedview>
  <g
     id="g187"
     inkscape:groupmode="layer"
     inkscape:label="Page 1"
     transform="matrix(1.3333333,0,0,-1.3333333,0,170.66667)">
    <path
       d="m 326.8906,63.0156 c 0,-3.331 -2.7,-6.031 -6.031,-6.031 -3.331,0 -6.032,2.7 -6.032,6.031 v 20.911 c 0,3.331 2.701,6.031 6.032,6.031 3.331,0 6.031,-2.7 6.031,-6.031 z"
       style="fill:#c70000;fill-opacity:1;fill-rule:nonzero;stroke:none"
       id="path824"
       clip-path="url(#clipPath2457)" />
    <path
       d="m 244.5625,63.0156 c 0,-3.331 -2.7,-6.031 -6.031,-6.031 -3.331,0 -6.032,2.7 -6.032,6.031 v 32.942 c 0,3.331 2.701,6.031 6.032,6.031 3.331,0 6.031,-2.7 6.031,-6.031 z"
       style="fill:#c70000;fill-opacity:1;fill-rule:nonzero;stroke:none"
       id="path827"
       clip-path="url(#clipPath2592)" />
    <path
       d="m 326.8906,99 c 0,-3.331 -2.7,-6.031 -6.031,-6.031 -3.331,0 -6.032,2.7 -6.032,6.031 0,3.331 2.701,6.031 6.032,6.031 3.331,0 6.031,-2.7 6.031,-6.031"
       style="fill:#c70000;fill-opacity:1;fill-rule:nonzero;stroke:none"
       id="path830"
       clip-path="url(#clipPath2547)" />
    <path
       d="m 98.5313,63.0156 c 0,-3.331 -2.7,-6.031 -6.031,-6.031 -3.331,0 -6.032,2.7 -6.032,6.031 v 20.911 c 0,3.331 2.701,6.031 6.032,6.031 3.331,0 6.031,-2.7 6.031,-6.031 z"
       style="fill:#c70000;fill-opacity:1;fill-rule:nonzero;stroke:none"
       id="path833"
       clip-path="url(#clipPath2562)" />
    <path
       d="m 98.5313,99 c 0,-3.331 -2.7,-6.031 -6.031,-6.031 -3.331,0 -6.032,2.7 -6.032,6.031 0,3.331 2.701,6.031 6.032,6.031 3.331,0 6.031,-2.7 6.031,-6.031"
       style="fill:#c70000;fill-opacity:1;fill-rule:nonzero;stroke:none"
       id="path836"
       clip-path="url(#clipPath2472)" />
    <path
       d="m 332.1709,79.4404 c 0,5.847 4.739,10.56 10.587,10.56 l 45.112,-0.002 c 2.479,0 4.488,-2.086 4.488,-4.564 0,-2.478 -2.009,-4.467 -4.488,-4.467 l -38.967,0.001 c -2.567,0 -4.679,-2.081 -4.679,-4.649 l 0.006,-13.288 c 0,-3.331 -2.701,-6.031 -6.032,-6.031 -3.331,0 -6.031,2.7 -6.031,6.031 z"
       style="fill:#c70000;fill-opacity:1;fill-rule:nonzero;stroke:none"
       id="path839"
       clip-path="url(#clipPath2622)" />
    <path
       d="m 309.7041,79.4053 c 0,5.847 -4.739,10.587 -10.587,10.587 l -44.742,-0.004 c -2.496,0 -4.52,-2.024 -4.52,-4.521 0,-2.496 2.007,-4.503 4.503,-4.503 l 41.825,0.011 c 0.832,0 1.507,-0.675 1.507,-1.508 0,-0.833 -0.675,-1.507 -1.507,-1.507 l -35.87,0.006 c -5.793,0 -10.489,-4.653 -10.489,-10.446 0,-5.794 4.696,-10.474 10.489,-10.474 l 38.804,0.005 c 5.848,0 10.587,4.741 10.587,10.587 z m -46.396,-13.443 c -0.832,0 -1.506,0.675 -1.506,1.507 0,0.833 0.674,1.508 1.506,1.508 h 32.875 c 0.832,0 1.507,-0.675 1.507,-1.508 0,-0.832 -0.675,-1.507 -1.507,-1.507 z"
       style="fill:#c70000;fill-opacity:1;fill-rule:nonzero;stroke:none"
       id="path842"
       clip-path="url(#clipPath2337)" />
    <path
       d="m 222.6143,66.1265 c 2.496,0 4.53,-2.037 4.53,-4.534 0,-2.496 -2.007,-4.503 -4.503,-4.503 l -39.266,-0.006 c -9.099,0 -16.475,7.376 -16.475,16.475 0,9.098 7.376,16.442 16.475,16.442 h 39.25 c 2.496,0 4.519,-2.036 4.519,-4.533 0,-2.496 -2.007,-4.499 -4.503,-4.499 l -36.273,0.002 c -4.104,0 -7.431,-3.301 -7.431,-7.406 0,-4.104 3.327,-7.435 7.431,-7.435 z"
       style="fill:#c70000;fill-opacity:1;fill-rule:nonzero;stroke:none"
       id="path845"
       clip-path="url(#clipPath2367)" />
    <path
       d="m 113.5957,89.9922 c -5.847,0 -10.587,-4.74 -10.587,-10.587 l 0.017,-16.39 c 0,-3.331 2.7,-6.031 6.031,-6.031 3.331,0 6.031,2.7 6.031,6.031 l 0.005,13.388 c 0,2.568 2.081,4.649 4.649,4.649 h 26.73 c 2.567,0 4.648,-2.081 4.648,-4.649 l 0.005,-13.388 c 0,-3.331 2.7,-6.031 6.032,-6.031 3.331,0 6.031,2.7 6.031,6.031 l 0.016,16.39 c 0,5.847 -4.739,10.587 -10.587,10.587 z"
       style="fill:#c70000;fill-opacity:1;fill-rule:nonzero;stroke:none"
       id="path848"
       clip-path="url(#clipPath2577)" />
    <path
       d="m 33.147,89.9863 c -5.793,0 -10.49,-4.652 -10.49,-10.445 0,-5.794 4.697,-10.474 10.49,-10.474 l 36.152,0.011 c 0.832,0 1.508,-0.675 1.508,-1.508 0,-0.833 -0.676,-1.508 -1.508,-1.508 h -42.1 c -2.497,0 -4.531,-2.004 -4.531,-4.501 0,-2.496 2.007,-4.503 4.503,-4.503 l 45.224,-0.012 c 5.793,0 10.489,4.68 10.489,10.474 0,5.793 -4.696,10.445 -10.489,10.445 l -36.286,-0.005 c -0.832,0 -1.507,0.674 -1.507,1.507 0,0.833 0.675,1.508 1.507,1.508 l 42.241,-0.011 c 2.496,0 4.503,2.007 4.503,4.503 0,2.497 -2.024,4.52 -4.52,4.52 z"
       style="fill:#c70000;fill-opacity:1;fill-rule:nonzero;stroke:none"
       id="path851"
       clip-path="url(#clipPath2607)" />
    <path
       d="m 24.5889,31.2217 9.415,11.259 h -8.678 v 3.245 h 13.815 v -3.049 l -9.414,-11.258 h 9.66 v -3.245 h -14.798 z"
       style="fill:#ffffff;fill-opacity:1;fill-rule:nonzero;stroke:none"
       id="path854"
       clip-path="url(#clipPath2307)" />
    <path
       d="m 46.1973,37.3672 -5.654,8.358 h 4.474 l 3.441,-5.604 3.565,5.604 h 4.228 l -5.629,-8.382 6.12,-9.169 h -4.596 l -3.835,6.071 -3.908,-6.071 h -4.352 z"
       style="fill:#ffffff;fill-opacity:1;fill-rule:nonzero;stroke:none"
       id="path857"
       clip-path="url(#clipPath2487)" />
    <path
       d="m 68.2485,34 c 0,-2.336 1.819,-3.245 3.884,-3.245 1.352,0 3.417,0.393 3.417,2.187 0,1.894 -2.63,2.213 -5.211,2.902 -2.606,0.687 -5.236,1.695 -5.236,4.99 0,3.589 3.392,5.31 6.563,5.31 3.663,0 7.031,-1.599 7.031,-5.655 h -3.737 c -0.123,2.115 -1.622,2.656 -3.466,2.656 -1.229,0 -2.655,-0.517 -2.655,-1.992 0,-1.352 0.836,-1.524 5.236,-2.655 1.278,-0.319 5.212,-1.131 5.212,-5.113 0,-3.22 -2.533,-5.629 -7.301,-5.629 -3.884,0 -7.522,1.917 -7.473,6.244 z"
       style="fill:#ffffff;fill-opacity:1;fill-rule:nonzero;stroke:none"
       id="path860"
       clip-path="url(#clipPath2502)" />
    <path
       d="m 90.7422,34.4912 c 0,2.016 -0.812,4.105 -3.048,4.105 -2.286,0 -3.024,-2.04 -3.024,-4.105 0,-2.064 0.787,-4.031 3.048,-4.031 2.286,0 3.024,1.967 3.024,4.031 m -9.439,6.392 h 3.318 v -1.622 h 0.049 c 0.836,1.351 2.213,1.965 3.786,1.965 3.982,0 5.776,-3.219 5.776,-6.834 0,-3.391 -1.868,-6.562 -5.58,-6.562 -1.524,0 -2.974,0.663 -3.81,1.917 h -0.049 v -6.047 h -3.49 z"
       style="fill:#ffffff;fill-opacity:1;fill-rule:nonzero;stroke:none"
       id="path863"
       clip-path="url(#clipPath2352)" />
    <path
       d="m 105.0498,35.8926 c -0.319,1.77 -1.082,2.704 -2.778,2.704 -2.212,0 -2.851,-1.721 -2.9,-2.704 z m -5.678,-2.213 c 0.098,-2.212 1.179,-3.22 3.121,-3.22 1.402,0 2.533,0.861 2.754,1.648 h 3.073 c -0.984,-2.999 -3.073,-4.278 -5.949,-4.278 -4.007,0 -6.49,2.753 -6.49,6.686 0,3.811 2.63,6.711 6.49,6.711 4.326,0 6.415,-3.638 6.17,-7.547 z"
       style="fill:#ffffff;fill-opacity:1;fill-rule:nonzero;stroke:none"
       id="path866"
       clip-path="url(#clipPath2382)" />
    <path
       d="m 119.5542,36.4092 c -0.222,1.426 -1.131,2.188 -2.582,2.188 -2.236,0 -2.974,-2.262 -2.974,-4.13 0,-1.82 0.713,-4.007 2.901,-4.007 1.622,0 2.556,1.032 2.778,2.581 h 3.367 c -0.442,-3.368 -2.777,-5.211 -6.12,-5.211 -3.835,0 -6.416,2.703 -6.416,6.514 0,3.958 2.359,6.882 6.489,6.882 2.999,0 5.752,-1.573 5.974,-4.817 z"
       style="fill:#ffffff;fill-opacity:1;fill-rule:nonzero;stroke:none"
       id="path869"
       clip-path="url(#clipPath2517)" />
    <path
       d="m 129.6333,40.8828 h 2.557 v -2.335 h -2.557 v -6.293 c 0,-1.181 0.295,-1.476 1.475,-1.476 0.369,0 0.713,0.025 1.082,0.099 v -2.728 c -0.59,-0.099 -1.352,-0.123 -2.04,-0.123 -2.139,0 -4.007,0.491 -4.007,3.023 v 7.498 h -2.114 v 2.335 h 2.114 v 3.811 h 3.49 z"
       style="fill:#ffffff;fill-opacity:1;fill-rule:nonzero;stroke:none"
       id="path872"
       clip-path="url(#clipPath2532)" />
    <path
       d="m 134.1079,40.8828 h 3.318 v -2.36 h 0.05 c 0.639,1.598 2.36,2.704 4.055,2.704 0.246,0 0.541,-0.049 0.763,-0.123 v -3.244 c -0.32,0.073 -0.836,0.123 -1.254,0.123 -2.557,0 -3.442,-1.844 -3.442,-4.081 v -5.728 h -3.49 z"
       style="fill:#ffffff;fill-opacity:1;fill-rule:nonzero;stroke:none"
       id="path875"
       clip-path="url(#clipPath2427)" />
    <path
       d="m 155.814,28.1738 h -3.318 v 1.77 h -0.074 c -0.885,-1.426 -2.409,-2.114 -3.884,-2.114 -3.712,0 -4.646,2.089 -4.646,5.236 v 7.817 h 3.49 v -7.178 c 0,-2.09 0.615,-3.122 2.238,-3.122 1.892,0 2.703,1.057 2.703,3.638 v 6.662 h 3.491 z"
       style="fill:#ffffff;fill-opacity:1;fill-rule:nonzero;stroke:none"
       id="path878"
       clip-path="url(#clipPath2397)" />
    <path
       d="m 158.7153,40.8828 h 3.294 v -1.721 h 0.049 c 0.909,1.303 2.237,2.065 3.884,2.065 1.598,0 3.023,-0.59 3.712,-2.115 0.737,1.107 2.065,2.115 3.835,2.115 2.704,0 4.646,-1.254 4.646,-4.548 v -8.505 h -3.491 v 7.202 c 0,1.696 -0.147,3.098 -2.138,3.098 -1.967,0 -2.336,-1.622 -2.336,-3.22 v -7.08 h -3.491 v 7.129 c 0,1.475 0.099,3.171 -2.113,3.171 -0.689,0 -2.36,-0.443 -2.36,-2.925 v -7.375 h -3.491 z"
       style="fill:#ffffff;fill-opacity:1;fill-rule:nonzero;stroke:none"
       id="path881"
       clip-path="url(#clipPath2412)" />
    <path
       d="m 188.4863,45.7256 h 3.834 l 7.326,-11.775 h 0.049 v 11.775 h 3.614 v -17.552 h -3.86 l -7.3,11.75 h -0.05 v -11.75 h -3.613 z"
       style="fill:#ffffff;fill-opacity:1;fill-rule:nonzero;stroke:none"
       id="path884"
       clip-path="url(#clipPath2322)" />
    <path
       d="m 215.1348,35.8926 c -0.319,1.77 -1.081,2.704 -2.777,2.704 -2.213,0 -2.852,-1.721 -2.902,-2.704 z m -5.679,-2.213 c 0.099,-2.212 1.181,-3.22 3.122,-3.22 1.402,0 2.533,0.861 2.753,1.648 h 3.074 c -0.984,-2.999 -3.074,-4.278 -5.95,-4.278 -4.007,0 -6.489,2.753 -6.489,6.686 0,3.811 2.63,6.711 6.489,6.711 4.327,0 6.416,-3.638 6.171,-7.547 z"
       style="fill:#ffffff;fill-opacity:1;fill-rule:nonzero;stroke:none"
       id="path887"
       clip-path="url(#clipPath2442)" />
    <path
       d="m 224.1816,34.8604 -4.179,6.022 h 3.983 l 2.236,-3.318 2.213,3.318 h 3.859 l -4.179,-5.949 4.695,-6.76 h -3.982 l -2.655,4.007 -2.655,-4.007 h -3.908 z"
       style="fill:#ffffff;fill-opacity:1;fill-rule:nonzero;stroke:none"
       id="path890"
       clip-path="url(#clipPath2648)" />
    <path
       d="M -0.395,128.1466 H 419.272 V 0.146597 H -0.395 Z"
       id="path455"
       clip-path="url(#clipPath2716)"
       style="fill:#ffffff;fill-opacity:1" />
  </g>
</svg>
